<?xml version="1.0" encoding="UTF-8" standalone="no"?>
<!DOCTYPE svg PUBLIC "-//W3C//DTD SVG 1.1//EN"
 "http://www.w3.org/Graphics/SVG/1.1/DTD/svg11.dtd">
<!-- Generated by graphviz version 4.0.0 (20220529.0937)
 -->
<!-- Pages: 1 -->
<svg width="860pt" height="764pt"
 viewBox="0.00 0.00 860.00 764.00" xmlns="http://www.w3.org/2000/svg" xmlns:xlink="http://www.w3.org/1999/xlink">
<g id="graph0" class="graph" transform="scale(1 1) rotate(0) translate(4 760)">
<polygon fill="white" stroke="transparent" points="-4,4 -4,-760 856,-760 856,4 -4,4"/>
<g id="clust1" class="cluster">
<title>cluster~</title>
<path fill="none" stroke="black" stroke-width="2.6" d="M20,-8C20,-8 832,-8 832,-8 838,-8 844,-14 844,-20 844,-20 844,-736 844,-736 844,-742 838,-748 832,-748 832,-748 20,-748 20,-748 14,-748 8,-742 8,-736 8,-736 8,-20 8,-20 8,-14 14,-8 20,-8"/>
<text text-anchor="middle" x="426" y="-733.6" font-family="Arial Black" font-size="13.00">spire_mvp_flutter</text>
</g>
<g id="clust2" class="cluster">
<title>cluster~/lib</title>
<path fill="none" stroke="black" stroke-width="2.6" d="M28,-16C28,-16 824,-16 824,-16 830,-16 836,-22 836,-28 836,-28 836,-624 836,-624 836,-630 830,-636 824,-636 824,-636 28,-636 28,-636 22,-636 16,-630 16,-624 16,-624 16,-28 16,-28 16,-22 22,-16 28,-16"/>
<text text-anchor="middle" x="426" y="-621.6" font-family="Arial Black" font-size="13.00">lib</text>
</g>
<g id="clust5" class="cluster">
<title>cluster~/lib/interfaces</title>
<path fill="none" stroke="black" stroke-width="2.6" d="M554,-314C554,-314 816,-314 816,-314 822,-314 828,-320 828,-326 828,-326 828,-376 828,-376 828,-382 822,-388 816,-388 816,-388 554,-388 554,-388 548,-388 542,-382 542,-376 542,-376 542,-326 542,-326 542,-320 548,-314 554,-314"/>
<text text-anchor="middle" x="685" y="-373.6" font-family="Arial Black" font-size="13.00">interfaces</text>
</g>
<g id="clust3" class="cluster">
<title>cluster~/lib/classes</title>
<path fill="none" stroke="black" stroke-width="2.6" d="M272,-24C272,-24 522,-24 522,-24 528,-24 534,-30 534,-36 534,-36 534,-594 534,-594 534,-600 528,-606 522,-606 522,-606 272,-606 272,-606 266,-606 260,-600 260,-594 260,-594 260,-36 260,-36 260,-30 266,-24 272,-24"/>
<text text-anchor="middle" x="397" y="-591.6" font-family="Arial Black" font-size="13.00">classes</text>
</g>
<g id="clust4" class="cluster">
<title>cluster~/lib/enums</title>
<path fill="none" stroke="black" stroke-width="2.6" d="M36,-24C36,-24 240,-24 240,-24 246,-24 252,-30 252,-36 252,-36 252,-86 252,-86 252,-92 246,-98 240,-98 240,-98 36,-98 36,-98 30,-98 24,-92 24,-86 24,-86 24,-36 24,-36 24,-30 30,-24 36,-24"/>
<text text-anchor="middle" x="138" y="-83.6" font-family="Arial Black" font-size="13.00">enums</text>
</g>
<g id="clust6" class="cluster">
<title>cluster~/test</title>
<path fill="none" stroke="black" stroke-width="2.6" d="M105,-644C105,-644 191,-644 191,-644 197,-644 203,-650 203,-656 203,-656 203,-706 203,-706 203,-712 197,-718 191,-718 191,-718 105,-718 105,-718 99,-718 93,-712 93,-706 93,-706 93,-656 93,-656 93,-650 99,-644 105,-644"/>
<text text-anchor="middle" x="148" y="-703.6" font-family="Arial Black" font-size="13.00">test</text>
</g>
<!-- /lib/classes/base_character.dart -->
<g id="node1" class="node">
<title>/lib/classes/base_character.dart</title>
<path fill="Lavender" stroke="black" stroke-width="1.3" d="M444.5,-68C444.5,-68 349.5,-68 349.5,-68 343.5,-68 337.5,-62 337.5,-56 337.5,-56 337.5,-44 337.5,-44 337.5,-38 343.5,-32 349.5,-32 349.5,-32 444.5,-32 444.5,-32 450.5,-32 456.5,-38 456.5,-44 456.5,-44 456.5,-56 456.5,-56 456.5,-62 450.5,-68 444.5,-68"/>
<text text-anchor="middle" x="397" y="-46.5" font-family="Arial" font-size="15.00">base_character</text>
</g>
<!-- /lib/interfaces/character.interface.dart -->
<g id="node15" class="node">
<title>/lib/interfaces/character.interface.dart</title>
<path fill="Lavender" stroke="black" stroke-width="1.3" d="M808,-358C808,-358 692,-358 692,-358 686,-358 680,-352 680,-346 680,-346 680,-334 680,-334 680,-328 686,-322 692,-322 692,-322 808,-322 808,-322 814,-322 820,-328 820,-334 820,-334 820,-346 820,-346 820,-352 814,-358 808,-358"/>
<text text-anchor="middle" x="750" y="-336.5" font-family="Arial" font-size="15.00">character.interface</text>
</g>
<!-- /lib/classes/base_character.dart&#45;&gt;/lib/interfaces/character.interface.dart -->
<g id="edge1" class="edge">
<title>/lib/classes/base_character.dart&#45;&gt;/lib/interfaces/character.interface.dart</title>
<path fill="none" stroke="black" stroke-width="1.3" d="M452.71,-68.08C477.6,-77.17 506.54,-89.84 530,-106 617.78,-166.45 697.38,-266.91 731.89,-313.64"/>
<polygon fill="black" stroke="black" stroke-width="1.3" points="729.07,-315.72 737.8,-321.72 734.72,-311.59 729.07,-315.72"/>
</g>
<!-- /lib/classes/card.dart -->
<g id="node2" class="node">
<title>/lib/classes/card.dart</title>
<path fill="Lavender" stroke="black" stroke-width="1.3" d="M406,-142C406,-142 376,-142 376,-142 370,-142 364,-136 364,-130 364,-130 364,-118 364,-118 364,-112 370,-106 376,-106 376,-106 406,-106 406,-106 412,-106 418,-112 418,-118 418,-118 418,-130 418,-130 418,-136 412,-142 406,-142"/>
<text text-anchor="middle" x="391" y="-120.5" font-family="Arial" font-size="15.00">card</text>
</g>
<!-- /lib/classes/card.dart&#45;&gt;/lib/classes/base_character.dart -->
<g id="edge2" class="edge">
<title>/lib/classes/card.dart&#45;&gt;/lib/classes/base_character.dart</title>
<path fill="none" stroke="black" stroke-width="1.3" d="M392.42,-105.94C393.1,-97.81 393.93,-87.88 394.69,-78.7"/>
<polygon fill="black" stroke="black" stroke-width="1.3" points="398.2,-78.7 395.55,-68.44 391.23,-78.12 398.2,-78.7"/>
</g>
<!-- /lib/enums/card_type.dart -->
<g id="node13" class="node">
<title>/lib/enums/card_type.dart</title>
<path fill="Lavender" stroke="black" stroke-width="1.3" d="M231.5,-68C231.5,-68 172.5,-68 172.5,-68 166.5,-68 160.5,-62 160.5,-56 160.5,-56 160.5,-44 160.5,-44 160.5,-38 166.5,-32 172.5,-32 172.5,-32 231.5,-32 231.5,-32 237.5,-32 243.5,-38 243.5,-44 243.5,-44 243.5,-56 243.5,-56 243.5,-62 237.5,-68 231.5,-68"/>
<text text-anchor="middle" x="202" y="-46.5" font-family="Arial" font-size="15.00">card_type</text>
</g>
<!-- /lib/classes/card.dart&#45;&gt;/lib/enums/card_type.dart -->
<g id="edge3" class="edge">
<title>/lib/classes/card.dart&#45;&gt;/lib/enums/card_type.dart</title>
<path fill="none" stroke="black" stroke-width="1.3" d="M363.83,-122.15C335.6,-120.34 290.78,-114.78 256,-98 244.57,-92.48 233.67,-83.89 224.69,-75.56"/>
<polygon fill="black" stroke="black" stroke-width="1.3" points="226.94,-72.86 217.34,-68.38 222.05,-77.87 226.94,-72.86"/>
</g>
<!-- /lib/classes/deck.dart -->
<g id="node3" class="node">
<title>/lib/classes/deck.dart</title>
<path fill="Lavender" stroke="black" stroke-width="1.3" d="M330,-214C330,-214 300,-214 300,-214 294,-214 288,-208 288,-202 288,-202 288,-190 288,-190 288,-184 294,-178 300,-178 300,-178 330,-178 330,-178 336,-178 342,-184 342,-190 342,-190 342,-202 342,-202 342,-208 336,-214 330,-214"/>
<text text-anchor="middle" x="315" y="-192.5" font-family="Arial" font-size="15.00">deck</text>
</g>
<!-- /lib/classes/deck.dart&#45;&gt;/lib/classes/card.dart -->
<g id="edge4" class="edge">
<title>/lib/classes/deck.dart&#45;&gt;/lib/classes/card.dart</title>
<path fill="none" stroke="black" stroke-width="1.3" d="M333.79,-177.7C343.17,-169.05 354.68,-158.45 364.91,-149.03"/>
<polygon fill="black" stroke="black" stroke-width="1.3" points="367.45,-151.45 372.43,-142.1 362.7,-146.3 367.45,-151.45"/>
</g>
<!-- /lib/classes/enemy.dart -->
<g id="node4" class="node">
<title>/lib/classes/enemy.dart</title>
<path fill="Lavender" stroke="black" stroke-width="1.3" d="M514,-504C514,-504 478,-504 478,-504 472,-504 466,-498 466,-492 466,-492 466,-480 466,-480 466,-474 472,-468 478,-468 478,-468 514,-468 514,-468 520,-468 526,-474 526,-480 526,-480 526,-492 526,-492 526,-498 520,-504 514,-504"/>
<text text-anchor="middle" x="496" y="-482.5" font-family="Arial" font-size="15.00">enemy</text>
</g>
<!-- /lib/classes/enemy.dart&#45;&gt;/lib/classes/base_character.dart -->
<g id="edge5" class="edge">
<title>/lib/classes/enemy.dart&#45;&gt;/lib/classes/base_character.dart</title>
<path fill="none" stroke="black" stroke-width="1.3" d="M501.73,-467.93C510.18,-441.2 525,-387.67 525,-341 525,-341 525,-341 525,-195 525,-141.27 474.61,-98.28 437.06,-73.7"/>
<polygon fill="black" stroke="black" stroke-width="1.3" points="438.63,-70.55 428.31,-68.15 434.88,-76.46 438.63,-70.55"/>
</g>
<!-- /lib/classes/moveset.dart -->
<g id="node7" class="node">
<title>/lib/classes/moveset.dart</title>
<path fill="Lavender" stroke="black" stroke-width="1.3" d="M371,-432C371,-432 323,-432 323,-432 317,-432 311,-426 311,-420 311,-420 311,-408 311,-408 311,-402 317,-396 323,-396 323,-396 371,-396 371,-396 377,-396 383,-402 383,-408 383,-408 383,-420 383,-420 383,-426 377,-432 371,-432"/>
<text text-anchor="middle" x="347" y="-410.5" font-family="Arial" font-size="15.00">moveset</text>
</g>
<!-- /lib/classes/enemy.dart&#45;&gt;/lib/classes/moveset.dart -->
<g id="edge6" class="edge">
<title>/lib/classes/enemy.dart&#45;&gt;/lib/classes/moveset.dart</title>
<path fill="none" stroke="black" stroke-width="1.3" d="M465.85,-470.83C444.75,-460.92 416.2,-447.51 392.37,-436.31"/>
<polygon fill="black" stroke="black" stroke-width="1.3" points="393.69,-433.07 383.15,-431.99 390.72,-439.41 393.69,-433.07"/>
</g>
<!-- /lib/classes/intension.dart -->
<g id="node5" class="node">
<title>/lib/classes/intension.dart</title>
<path fill="Lavender" stroke="black" stroke-width="1.3" d="M330,-358C330,-358 280,-358 280,-358 274,-358 268,-352 268,-346 268,-346 268,-334 268,-334 268,-328 274,-322 280,-322 280,-322 330,-322 330,-322 336,-322 342,-328 342,-334 342,-334 342,-346 342,-346 342,-352 336,-358 330,-358"/>
<text text-anchor="middle" x="305" y="-336.5" font-family="Arial" font-size="15.00">intension</text>
</g>
<!-- /lib/enums/intension_type.dart -->
<g id="node14" class="node">
<title>/lib/enums/intension_type.dart</title>
<path fill="Lavender" stroke="black" stroke-width="1.3" d="M130,-68C130,-68 44,-68 44,-68 38,-68 32,-62 32,-56 32,-56 32,-44 32,-44 32,-38 38,-32 44,-32 44,-32 130,-32 130,-32 136,-32 142,-38 142,-44 142,-44 142,-56 142,-56 142,-62 136,-68 130,-68"/>
<text text-anchor="middle" x="87" y="-46.5" font-family="Arial" font-size="15.00">intension_type</text>
</g>
<!-- /lib/classes/intension.dart&#45;&gt;/lib/enums/intension_type.dart -->
<g id="edge7" class="edge">
<title>/lib/classes/intension.dart&#45;&gt;/lib/enums/intension_type.dart</title>
<path fill="none" stroke="black" stroke-width="1.3" d="M292.02,-321.85C255.14,-273.12 149.62,-133.72 106.11,-76.24"/>
<polygon fill="black" stroke="black" stroke-width="1.3" points="108.74,-73.92 99.92,-68.06 103.16,-78.15 108.74,-73.92"/>
</g>
<!-- /lib/classes/item.dart -->
<g id="node6" class="node">
<title>/lib/classes/item.dart</title>
<path fill="Lavender" stroke="black" stroke-width="1.3" d="M474,-214C474,-214 444,-214 444,-214 438,-214 432,-208 432,-202 432,-202 432,-190 432,-190 432,-184 438,-178 444,-178 444,-178 474,-178 474,-178 480,-178 486,-184 486,-190 486,-190 486,-202 486,-202 486,-208 480,-214 474,-214"/>
<text text-anchor="middle" x="459" y="-192.5" font-family="Arial" font-size="15.00">item</text>
</g>
<!-- /lib/classes/moveset.dart&#45;&gt;/lib/classes/intension.dart -->
<g id="edge9" class="edge">
<title>/lib/classes/moveset.dart&#45;&gt;/lib/classes/intension.dart</title>
<path fill="none" stroke="black" stroke-width="1.3" d="M337.05,-395.94C332.05,-387.37 325.88,-376.79 320.29,-367.22"/>
<polygon fill="black" stroke="black" stroke-width="1.3" points="323.24,-365.31 315.17,-358.44 317.19,-368.84 323.24,-365.31"/>
</g>
<!-- /lib/classes/player.dart -->
<g id="node8" class="node">
<title>/lib/classes/player.dart</title>
<path fill="Lavender" stroke="black" stroke-width="1.3" d="M405.5,-358C405.5,-358 372.5,-358 372.5,-358 366.5,-358 360.5,-352 360.5,-346 360.5,-346 360.5,-334 360.5,-334 360.5,-328 366.5,-322 372.5,-322 372.5,-322 405.5,-322 405.5,-322 411.5,-322 417.5,-328 417.5,-334 417.5,-334 417.5,-346 417.5,-346 417.5,-352 411.5,-358 405.5,-358"/>
<text text-anchor="middle" x="389" y="-336.5" font-family="Arial" font-size="15.00">player</text>
</g>
<!-- /lib/classes/moveset.dart&#45;&gt;/lib/classes/player.dart -->
<g id="edge10" class="edge">
<title>/lib/classes/moveset.dart&#45;&gt;/lib/classes/player.dart</title>
<path fill="none" stroke="black" stroke-width="1.3" d="M356.95,-395.94C361.95,-387.37 368.12,-376.79 373.71,-367.22"/>
<polygon fill="black" stroke="black" stroke-width="1.3" points="376.81,-368.84 378.83,-358.44 370.76,-365.31 376.81,-368.84"/>
</g>
<!-- /lib/classes/moveset.dart&#45;&gt;/lib/enums/intension_type.dart -->
<g id="edge8" class="edge">
<title>/lib/classes/moveset.dart&#45;&gt;/lib/enums/intension_type.dart</title>
<path fill="none" stroke="black" stroke-width="1.3" d="M310.85,-407C247.25,-394.14 122,-357.58 122,-269 122,-269 122,-269 122,-195 122,-153.3 107.97,-106.67 97.67,-78.08"/>
<polygon fill="black" stroke="black" stroke-width="1.3" points="100.84,-76.56 94.08,-68.4 94.28,-79 100.84,-76.56"/>
</g>
<!-- /lib/classes/player_character.dart -->
<g id="node9" class="node">
<title>/lib/classes/player_character.dart</title>
<path fill="Lavender" stroke="black" stroke-width="1.3" d="M404,-286C404,-286 300,-286 300,-286 294,-286 288,-280 288,-274 288,-274 288,-262 288,-262 288,-256 294,-250 300,-250 300,-250 404,-250 404,-250 410,-250 416,-256 416,-262 416,-262 416,-274 416,-274 416,-280 410,-286 404,-286"/>
<text text-anchor="middle" x="352" y="-264.5" font-family="Arial" font-size="15.00">player_character</text>
</g>
<!-- /lib/classes/player.dart&#45;&gt;/lib/classes/player_character.dart -->
<g id="edge11" class="edge">
<title>/lib/classes/player.dart&#45;&gt;/lib/classes/player_character.dart</title>
<path fill="none" stroke="black" stroke-width="1.3" d="M379.85,-321.7C375.6,-313.64 370.44,-303.89 365.73,-294.98"/>
<polygon fill="black" stroke="black" stroke-width="1.3" points="368.81,-293.31 361.04,-286.1 362.62,-296.58 368.81,-293.31"/>
</g>
<!-- /lib/classes/player_character.dart&#45;&gt;/lib/classes/base_character.dart -->
<g id="edge15" class="edge">
<title>/lib/classes/player_character.dart&#45;&gt;/lib/classes/base_character.dart</title>
<path fill="none" stroke="black" stroke-width="1.3" d="M315.49,-249.92C301.4,-241.29 286.82,-229.35 279,-214 271.73,-199.75 273.15,-192.89 279,-178 296.08,-134.53 335.81,-97.09 364.46,-74.35"/>
<polygon fill="black" stroke="black" stroke-width="1.3" points="366.82,-76.95 372.58,-68.05 362.54,-71.41 366.82,-76.95"/>
</g>
<!-- /lib/classes/player_character.dart&#45;&gt;/lib/classes/deck.dart -->
<g id="edge12" class="edge">
<title>/lib/classes/player_character.dart&#45;&gt;/lib/classes/deck.dart</title>
<path fill="none" stroke="black" stroke-width="1.3" d="M342.85,-249.7C338.6,-241.64 333.44,-231.89 328.73,-222.98"/>
<polygon fill="black" stroke="black" stroke-width="1.3" points="331.81,-221.31 324.04,-214.1 325.62,-224.58 331.81,-221.31"/>
</g>
<!-- /lib/classes/player_character.dart&#45;&gt;/lib/classes/item.dart -->
<g id="edge14" class="edge">
<title>/lib/classes/player_character.dart&#45;&gt;/lib/classes/item.dart</title>
<path fill="none" stroke="black" stroke-width="1.3" d="M378.18,-249.88C392.04,-240.81 409.24,-229.55 424.21,-219.76"/>
<polygon fill="black" stroke="black" stroke-width="1.3" points="426.27,-222.59 432.72,-214.19 422.44,-216.74 426.27,-222.59"/>
</g>
<!-- /lib/classes/relic.dart -->
<g id="node10" class="node">
<title>/lib/classes/relic.dart</title>
<path fill="Lavender" stroke="black" stroke-width="1.3" d="M402,-214C402,-214 372,-214 372,-214 366,-214 360,-208 360,-202 360,-202 360,-190 360,-190 360,-184 366,-178 372,-178 372,-178 402,-178 402,-178 408,-178 414,-184 414,-190 414,-190 414,-202 414,-202 414,-208 408,-214 402,-214"/>
<text text-anchor="middle" x="387" y="-192.5" font-family="Arial" font-size="15.00">relic</text>
</g>
<!-- /lib/classes/player_character.dart&#45;&gt;/lib/classes/relic.dart -->
<g id="edge13" class="edge">
<title>/lib/classes/player_character.dart&#45;&gt;/lib/classes/relic.dart</title>
<path fill="none" stroke="black" stroke-width="1.3" d="M360.65,-249.7C364.64,-241.73 369.45,-232.1 373.87,-223.26"/>
<polygon fill="black" stroke="black" stroke-width="1.3" points="377.11,-224.61 378.45,-214.1 370.85,-221.48 377.11,-224.61"/>
</g>
<!-- /lib/classes/reward.dart -->
<g id="node11" class="node">
<title>/lib/classes/reward.dart</title>
<path fill="Lavender" stroke="black" stroke-width="1.3" d="M485.5,-286C485.5,-286 446.5,-286 446.5,-286 440.5,-286 434.5,-280 434.5,-274 434.5,-274 434.5,-262 434.5,-262 434.5,-256 440.5,-250 446.5,-250 446.5,-250 485.5,-250 485.5,-250 491.5,-250 497.5,-256 497.5,-262 497.5,-262 497.5,-274 497.5,-274 497.5,-280 491.5,-286 485.5,-286"/>
<text text-anchor="middle" x="466" y="-264.5" font-family="Arial" font-size="15.00">reward</text>
</g>
<!-- /lib/classes/reward.dart&#45;&gt;/lib/classes/card.dart -->
<g id="edge18" class="edge">
<title>/lib/classes/reward.dart&#45;&gt;/lib/classes/card.dart</title>
<path fill="none" stroke="black" stroke-width="1.3" d="M479.7,-249.92C492.91,-231.23 509.01,-200.86 495,-178 480.46,-154.26 451.57,-140.74 427.93,-133.3"/>
<polygon fill="black" stroke="black" stroke-width="1.3" points="428.75,-129.9 418.17,-130.48 426.8,-136.62 428.75,-129.9"/>
</g>
<!-- /lib/classes/reward.dart&#45;&gt;/lib/classes/item.dart -->
<g id="edge17" class="edge">
<title>/lib/classes/reward.dart&#45;&gt;/lib/classes/item.dart</title>
<path fill="none" stroke="black" stroke-width="1.3" d="M464.27,-249.7C463.5,-241.98 462.57,-232.71 461.71,-224.11"/>
<polygon fill="black" stroke="black" stroke-width="1.3" points="465.19,-223.71 460.71,-214.1 458.22,-224.4 465.19,-223.71"/>
</g>
<!-- /lib/classes/reward.dart&#45;&gt;/lib/classes/relic.dart -->
<g id="edge16" class="edge">
<title>/lib/classes/reward.dart&#45;&gt;/lib/classes/relic.dart</title>
<path fill="none" stroke="black" stroke-width="1.3" d="M446.47,-249.7C436.62,-240.97 424.51,-230.24 413.8,-220.75"/>
<polygon fill="black" stroke="black" stroke-width="1.3" points="416.11,-218.12 406.3,-214.1 411.47,-223.36 416.11,-218.12"/>
</g>
<!-- /lib/classes/room.dart -->
<g id="node12" class="node">
<title>/lib/classes/room.dart</title>
<path fill="Lavender" stroke="black" stroke-width="1.3" d="M511,-576C511,-576 481,-576 481,-576 475,-576 469,-570 469,-564 469,-564 469,-552 469,-552 469,-546 475,-540 481,-540 481,-540 511,-540 511,-540 517,-540 523,-546 523,-552 523,-552 523,-564 523,-564 523,-570 517,-576 511,-576"/>
<text text-anchor="middle" x="496" y="-554.5" font-family="Arial" font-size="15.00">room</text>
</g>
<!-- /lib/classes/room.dart&#45;&gt;/lib/classes/enemy.dart -->
<g id="edge20" class="edge">
<title>/lib/classes/room.dart&#45;&gt;/lib/classes/enemy.dart</title>
<path fill="none" stroke="black" stroke-width="1.3" d="M496,-539.7C496,-531.98 496,-522.71 496,-514.11"/>
<polygon fill="black" stroke="black" stroke-width="1.3" points="499.5,-514.1 496,-504.1 492.5,-514.1 499.5,-514.1"/>
</g>
<!-- /lib/classes/room.dart&#45;&gt;/lib/classes/reward.dart -->
<g id="edge21" class="edge">
<title>/lib/classes/room.dart&#45;&gt;/lib/classes/reward.dart</title>
<path fill="none" stroke="black" stroke-width="1.3" d="M479.11,-539.99C470.71,-530.31 461.42,-517.46 457,-504 433.3,-431.82 448.81,-340.41 459.05,-295.86"/>
<polygon fill="black" stroke="black" stroke-width="1.3" points="462.47,-296.62 461.39,-286.08 455.66,-295 462.47,-296.62"/>
</g>
<!-- /lib/interfaces/room.interface.dart -->
<g id="node16" class="node">
<title>/lib/interfaces/room.interface.dart</title>
<path fill="Lavender" stroke="black" stroke-width="1.3" d="M650,-358C650,-358 562,-358 562,-358 556,-358 550,-352 550,-346 550,-346 550,-334 550,-334 550,-328 556,-322 562,-322 562,-322 650,-322 650,-322 656,-322 662,-328 662,-334 662,-334 662,-346 662,-346 662,-352 656,-358 650,-358"/>
<text text-anchor="middle" x="606" y="-336.5" font-family="Arial" font-size="15.00">room.interface</text>
</g>
<!-- /lib/classes/room.dart&#45;&gt;/lib/interfaces/room.interface.dart -->
<g id="edge19" class="edge">
<title>/lib/classes/room.dart&#45;&gt;/lib/interfaces/room.interface.dart</title>
<path fill="none" stroke="black" stroke-width="1.3" d="M510.4,-539.53C518.26,-529.51 527.82,-516.47 535,-504 561.39,-458.19 584.25,-400.71 596.49,-367.69"/>
<polygon fill="black" stroke="black" stroke-width="1.3" points="599.79,-368.86 599.94,-358.26 593.21,-366.45 599.79,-368.86"/>
</g>
<!-- /lib/interfaces/room.interface.dart&#45;&gt;/lib/classes/enemy.dart -->
<g id="edge22" class="edge">
<title>/lib/interfaces/room.interface.dart&#45;&gt;/lib/classes/enemy.dart</title>
<path fill="none" stroke="black" stroke-width="1.3" d="M592.97,-358.06C573.71,-383.27 537.53,-430.64 515.22,-459.84"/>
<polygon fill="black" stroke="black" stroke-width="1.3" points="512.34,-457.84 509.05,-467.92 517.9,-462.09 512.34,-457.84"/>
</g>
<!-- /lib/interfaces/room.interface.dart&#45;&gt;/lib/classes/reward.dart -->
<g id="edge23" class="edge">
<title>/lib/interfaces/room.interface.dart&#45;&gt;/lib/classes/reward.dart</title>
<path fill="none" stroke="black" stroke-width="1.3" d="M571.75,-321.88C552.1,-312.05 527.3,-299.65 506.66,-289.33"/>
<polygon fill="black" stroke="black" stroke-width="1.3" points="508.01,-286.09 497.5,-284.75 504.88,-292.35 508.01,-286.09"/>
</g>
<!-- /lib/main.dart -->
<g id="node17" class="node">
<title>/lib/main.dart</title>
<path fill="Lavender" stroke="black" stroke-width="1.3" d="M163,-576C163,-576 133,-576 133,-576 127,-576 121,-570 121,-564 121,-564 121,-552 121,-552 121,-546 127,-540 133,-540 133,-540 163,-540 163,-540 169,-540 175,-546 175,-552 175,-552 175,-564 175,-564 175,-570 169,-576 163,-576"/>
<text text-anchor="middle" x="148" y="-554.5" font-family="Arial" font-size="15.00">main</text>
</g>
<!-- /test/widget_test.dart -->
<g id="node18" class="node">
<title>/test/widget_test.dart</title>
<path fill="Lavender" stroke="black" stroke-width="1.3" d="M182.5,-688C182.5,-688 113.5,-688 113.5,-688 107.5,-688 101.5,-682 101.5,-676 101.5,-676 101.5,-664 101.5,-664 101.5,-658 107.5,-652 113.5,-652 113.5,-652 182.5,-652 182.5,-652 188.5,-652 194.5,-658 194.5,-664 194.5,-664 194.5,-676 194.5,-676 194.5,-682 188.5,-688 182.5,-688"/>
<text text-anchor="middle" x="148" y="-666.5" font-family="Arial" font-size="15.00">widget_test</text>
</g>
<!-- /test/widget_test.dart&#45;&gt;/lib/main.dart -->
<g id="edge24" class="edge">
<title>/test/widget_test.dart&#45;&gt;/lib/main.dart</title>
<path fill="none" stroke="black" stroke-width="1.3" d="M148,-651.81C148,-634.21 148,-606.61 148,-586.07"/>
<polygon fill="black" stroke="black" stroke-width="1.3" points="151.5,-586.07 148,-576.07 144.5,-586.07 151.5,-586.07"/>
</g>
</g>
</svg>
